<svg xmlns="http://www.w3.org/2000/svg" width="13.967" height="19.77" viewBox="0 0 13.967 19.77">
  <g id="click" transform="translate(-0.089 0)">
    <path id="Path_148" data-name="Path 148" d="M13.056,56.426h-.029a1.041,1.041,0,0,0-1.013,1.069v.833a.3.3,0,1,1-.6,0V56.789a.993.993,0,1,0-1.976,0V58.42a.3.3,0,0,1-.6,0V56.342a1.04,1.04,0,0,0-1-1.076H7.8a1.006,1.006,0,0,0-.985,1.03v2.34a.3.3,0,1,1-.6,0V56.364c0-.007,0-.015,0-.023s0-.037,0-.055V50.973a1.053,1.053,0,0,0-1-1.09,1.053,1.053,0,0,0-1,1.089L4.2,59.783a.3.3,0,0,1-.533.191L2.615,58.693a1.6,1.6,0,0,0-1.13-.6,1.567,1.567,0,0,0-1.178.423L.3,58.529.089,58.7l3.648,7.01a3.236,3.236,0,0,0,2.841,1.8h4.216A3.4,3.4,0,0,0,14.052,64c0-1.024,0-1.792,0-2.411,0-1.654,0-2.262,0-4.084a1.038,1.038,0,0,0-1-1.076Zm0,0" transform="translate(0 -47.74)" fill="#083689"/>
    <path id="Path_149" data-name="Path 149" d="M48.894,3.338a.3.3,0,0,0,.3-.3,2.425,2.425,0,1,1,4.849,0,.3.3,0,0,0,.6,0,3.026,3.026,0,1,0-6.052,0A.3.3,0,0,0,48.894,3.338Zm0,0" transform="translate(-46.42 0)" fill="#083689"/>
  </g>
</svg>
