<svg xmlns="http://www.w3.org/2000/svg" width="18.45" height="10.566" viewBox="0 0 18.45 10.566">
  <g id="font_1_" data-name="font (1)" transform="translate(0 -67.099)">
    <g id="Group_165" data-name="Group 165" transform="translate(0 67.099)">
      <path id="Path_134" data-name="Path 134" d="M.132,97.926l3.576-8.075a1.4,1.4,0,0,1,1.319-.894h.132a1.375,1.375,0,0,1,1.3.894l3.576,8.075a1.1,1.1,0,0,1,.117.454,1.07,1.07,0,0,1-1.07,1.084A1.149,1.149,0,0,1,8,98.688l-.689-1.612H2.8l-.718,1.685a1.108,1.108,0,0,1-1.04.7A1.038,1.038,0,0,1,0,98.41,1.2,1.2,0,0,1,.132,97.926Zm6.346-2.843L5.056,91.7,3.634,95.083Z" transform="translate(0 -88.957)" fill="#083689"/>
      <path id="Path_135" data-name="Path 135" d="M176.011,133.478v-.029c0-1.715,1.3-2.506,3.166-2.506a5.581,5.581,0,0,1,1.92.322v-.132c0-.923-.572-1.436-1.685-1.436a5.106,5.106,0,0,0-1.539.22.943.943,0,0,1-.323.059.907.907,0,0,1-.923-.909.923.923,0,0,1,.6-.865,6.839,6.839,0,0,1,2.506-.41,3.627,3.627,0,0,1,2.653.879,3.424,3.424,0,0,1,.85,2.506v3.576a1.07,1.07,0,0,1-1.085,1.07,1,1,0,0,1-1.07-.923v-.015a3.02,3.02,0,0,1-2.374,1A2.43,2.43,0,0,1,176.011,133.478Zm5.115-.513v-.4a3.454,3.454,0,0,0-1.421-.293c-.953,0-1.539.381-1.539,1.084v.029c0,.6.5.953,1.216.953C180.422,134.343,181.126,133.771,181.126,132.965Z" transform="translate(-164.786 -125.315)" fill="#083689"/>
    </g>
  </g>
</svg>
