<svg xmlns="http://www.w3.org/2000/svg" width="22.042" height="22.042" viewBox="0 0 22.042 22.042">
  <path id="gear" d="M21.523,8.511l-1.694-.368a9.22,9.22,0,0,0-.545-1.315l.938-1.459a.659.659,0,0,0-.088-.822L17.494,1.908a.659.659,0,0,0-.822-.088l-1.459.938A9.22,9.22,0,0,0,13.9,2.213L13.53.518A.659.659,0,0,0,12.887,0H9.155a.659.659,0,0,0-.644.519L8.143,2.213a9.22,9.22,0,0,0-1.315.545L5.369,1.82a.659.659,0,0,0-.822.088L1.908,4.547a.659.659,0,0,0-.088.822l.938,1.459a9.22,9.22,0,0,0-.545,1.315L.519,8.511A.659.659,0,0,0,0,9.155v3.732a.659.659,0,0,0,.519.644l1.694.368a9.219,9.219,0,0,0,.545,1.315L1.82,16.672a.659.659,0,0,0,.088.822l2.639,2.639a.659.659,0,0,0,.822.088l1.459-.938a9.22,9.22,0,0,0,1.315.545l.368,1.694a.659.659,0,0,0,.644.519h3.732a.659.659,0,0,0,.644-.519l.368-1.694a9.219,9.219,0,0,0,1.315-.545l1.459.938a.659.659,0,0,0,.822-.088l2.639-2.639a.659.659,0,0,0,.088-.822l-.938-1.459a9.22,9.22,0,0,0,.545-1.315l1.694-.368a.659.659,0,0,0,.519-.644V9.155A.659.659,0,0,0,21.523,8.511Zm-6.55,2.51a3.952,3.952,0,1,1-3.952-3.952A3.956,3.956,0,0,1,14.972,11.021Zm0,0" transform="translate(0 0)" fill="#083689"/>
</svg>
