<svg xmlns="http://www.w3.org/2000/svg" width="13.814" height="17.805" viewBox="0 0 13.814 17.805">
  <g id="pdf" transform="translate(-6.5)">
    <path id="Path_140" data-name="Path 140" d="M37.66,24.835a.486.486,0,0,0,.071-.127c-.038-.02-.088-.06-.361-.06a4.419,4.419,0,0,0-.556.033c.25.192.311.29.475.29A.461.461,0,0,0,37.66,24.835Z" transform="translate(-21.008 -17.081)" fill="#373737"/>
    <path id="Path_141" data-name="Path 141" d="M20.235,30.253c.046-.014.313-.136.81-1.055-.656.369-.923.672-.942.842C20.1,30.069,20.091,30.143,20.235,30.253Z" transform="translate(-9.426 -20.235)" fill="#373737"/>
    <path id="Path_142" data-name="Path 142" d="M20.314,11.973V4.291a.709.709,0,0,0-.169-.55L16.573.169A.581.581,0,0,0,16.166,0H7.256A.8.8,0,0,0,6.5.9V11.973Zm-4.3-10.932A.158.158,0,0,1,16.286.93l3.1,3.1a.158.158,0,0,1-.111.269H16.017ZM10.163,9.748c.056-.5.674-1.023,1.837-1.556a20.607,20.607,0,0,0,1.163-3.3,3.032,3.032,0,0,1-.387-2.039.589.589,0,0,1,.348-.373,1.507,1.507,0,0,1,.312-.053c.155,0,.291.2.387.322s.3.36-.115,2.088a9.809,9.809,0,0,0,1.562,2.321,5.972,5.972,0,0,1,1.031-.11c.481,0,.772.112.891.343a.621.621,0,0,1-.12.663.816.816,0,0,1-.682.366,2.041,2.041,0,0,1-1.293-.7,14.7,14.7,0,0,0-2.71.866,8.71,8.71,0,0,1-.732,1.305c-.314.441-.585.647-.854.647h0a.493.493,0,0,1-.3-.1A.737.737,0,0,1,10.163,9.748Z" fill="#373737"/>
    <path id="Path_143" data-name="Path 143" d="M19.256,45.38a.509.509,0,0,0-.183-.151.679.679,0,0,0-.311-.061h-.378v1.225h.462a.549.549,0,0,0,.183-.032.46.46,0,0,0,.166-.1.5.5,0,0,0,.122-.2.944.944,0,0,0,.046-.317.857.857,0,0,0-.021-.174A.506.506,0,0,0,19.256,45.38Z" transform="translate(-8.236 -31.302)" fill="#373737"/>
    <path id="Path_144" data-name="Path 144" d="M27.49,18.174a21.954,21.954,0,0,1-.821,2.322,15.339,15.339,0,0,1,1.994-.62A10.508,10.508,0,0,1,27.49,18.174Z" transform="translate(-13.977 -12.595)" fill="#373737"/>
    <path id="Path_145" data-name="Path 145" d="M6.5,41v4.6a.745.745,0,0,0,.756.614h12.3a.745.745,0,0,0,.756-.614V41Zm5.033,2.281a.891.891,0,0,1-.223.321,1,1,0,0,1-.344.2,1.324,1.324,0,0,1-.445.071h-.374v1.117h-.5V41.9h.89a1.249,1.249,0,0,1,.39.063,1.061,1.061,0,0,1,.346.189.986.986,0,0,1,.248.3.843.843,0,0,1,.095.4A1.091,1.091,0,0,1,11.533,43.281Zm3.087.73a1.622,1.622,0,0,1-.208.453,1.068,1.068,0,0,1-.283.288,1.421,1.421,0,0,1-.3.157,1.257,1.257,0,0,1-.269.067,1.789,1.789,0,0,1-.181.014H12.205V41.9h.932a1.77,1.77,0,0,1,.686.124,1.425,1.425,0,0,1,.491.329,1.352,1.352,0,0,1,.292.468,1.553,1.553,0,0,1,.1.539A2.263,2.263,0,0,1,14.62,44.011Zm2.747-1.731H15.944v.974h1.293V43.6H15.944v1.393h-.512V41.9h1.935Z" transform="translate(0 -28.413)" fill="#373737"/>
    <path id="Path_146" data-name="Path 146" d="M27.965,45.509a.941.941,0,0,0-.359-.248,1.545,1.545,0,0,0-.588-.095h-.294v2.342h.5a.834.834,0,0,0,.739-.327,1.661,1.661,0,0,0,.227-.949,1.607,1.607,0,0,0-.046-.382A.817.817,0,0,0,27.965,45.509Z" transform="translate(-14.016 -31.301)" fill="#373737"/>
    <path id="Path_147" data-name="Path 147" d="M28.329,9.712a.736.736,0,0,0,.029.987C28.65,10.05,28.342,9.708,28.329,9.712Z" transform="translate(-15.003 -6.73)" fill="#373737"/>
  </g>
</svg>
