<svg xmlns="http://www.w3.org/2000/svg" width="11.902" height="16.06" viewBox="0 0 11.902 16.06">
  <g id="think" transform="translate(-98.948 -3.34)">
    <g id="Group_157" data-name="Group 157" transform="translate(98.948 3.34)">
      <g id="Group_156" data-name="Group 156" transform="translate(0)">
        <path id="Path_129" data-name="Path 129" d="M110.85,94.087a5.951,5.951,0,1,0-9.2,4.987v1.875a3.248,3.248,0,0,0,6.5,0V99.074A5.971,5.971,0,0,0,110.85,94.087ZM107,100.948a2.1,2.1,0,0,1-4.2,0v-.479H107Zm.288-2.693a.574.574,0,0,0-.288.5v.569h-1.528V96.356a1.861,1.861,0,0,0,1.285-1.767.574.574,0,0,0-1.147,0,.711.711,0,1,1-1.422,0,.574.574,0,1,0-1.147,0,1.861,1.861,0,0,0,1.285,1.767v2.966H102.8v-.569a.574.574,0,0,0-.288-.5,4.8,4.8,0,1,1,4.778,0Z" transform="translate(-98.948 -88.136)" fill="#083689"/>
      </g>
    </g>
  </g>
</svg>
