<svg xmlns="http://www.w3.org/2000/svg" width="15.739" height="15.739" viewBox="0 0 15.739 15.739">
  <g id="Group_181" data-name="Group 181" transform="translate(-13.282 -13.282)">
    <g id="ui" transform="translate(13.282 13.282)">
      <g id="Group_149" data-name="Group 149" transform="translate(0 0)">
        <g id="Group_148" data-name="Group 148" transform="translate(0 0)">
          <path id="Path_127" data-name="Path 127" d="M15.559,14.689l-4.441-4.441a6.273,6.273,0,1,0-.87.87l4.441,4.441a.615.615,0,0,0,.87-.87ZM9.835,9.835a5.043,5.043,0,1,1,0-7.132A5.048,5.048,0,0,1,9.835,9.835Z" transform="translate(0 0)" fill="#083689"/>
        </g>
      </g>
      <g id="Group_151" data-name="Group 151" transform="translate(2.644 2.644)">
        <g id="Group_150" data-name="Group 150">
          <path id="Path_128" data-name="Path 128" d="M92.642,89.016h-2.4v-2.4a.615.615,0,0,0-1.23,0v2.4h-2.4a.615.615,0,0,0,0,1.23h2.4v2.4a.615.615,0,0,0,1.23,0v-2.4h2.4a.615.615,0,0,0,0-1.23Z" transform="translate(-86.005 -86.005)" fill="#083689"/>
        </g>
      </g>
    </g>
  </g>
</svg>
